<svg width="24" height="24" viewBox="0 0 24 24" fill="none" xmlns="http://www.w3.org/2000/svg">
<path fill-rule="evenodd" clip-rule="evenodd" d="M21 6.375C21 4.51104 19.489 3 17.625 3H6.375C4.51104 3 3 4.51104 3 6.375V17.6251C3 19.4891 4.51104 21.0001 6.375 21.0001H17.625C19.489 21.0001 21 19.4891 21 17.6251L21 6.375ZM11.9996 9.84384C12.7763 9.84384 13.4059 9.21424 13.4059 8.43759C13.4059 7.66094 12.7763 7.03134 11.9996 7.03134C11.223 7.03134 10.5934 7.66094 10.5934 8.43759C10.5934 9.21424 11.223 9.84384 11.9996 9.84384ZM10.5934 11.2501C10.0756 11.2501 9.65588 11.6698 9.65588 12.1876C9.65588 12.7054 10.0756 13.1251 10.5934 13.1251H11.5312L11.5312 16.6876C11.5312 17.2054 11.951 17.6251 12.4688 17.6251C12.9865 17.6251 13.4062 17.2054 13.4062 16.6876L13.4062 12.1876C13.4062 11.6698 12.9865 11.2501 12.4687 11.2501H10.5934Z" fill="#80FFF9"/>
</svg>
