<svg width="16" height="16" viewBox="0 0 16 16" fill="none" xmlns="http://www.w3.org/2000/svg">
<path d="M1 3.52778C1 2.85737 1.26632 2.21442 1.74037 1.74037C2.21442 1.26632 2.85737 1 3.52778 1H12.4722C13.1426 1 13.7856 1.26632 14.2596 1.74037C14.7337 2.21442 15 2.85737 15 3.52778V12.4722C15 13.1426 14.7337 13.7856 14.2596 14.2596C13.7856 14.7337 13.1426 15 12.4722 15H3.52778C2.85737 15 2.21442 14.7337 1.74037 14.2596C1.26632 13.7856 1 13.1426 1 12.4722V3.52778ZM8.38889 5.86111C8.38889 6.18311 8.65022 6.44444 8.97222 6.44444H11.6944C11.8492 6.44444 11.9975 6.38299 12.1069 6.27359C12.2163 6.16419 12.2778 6.01582 12.2778 5.86111C12.2778 5.7064 12.2163 5.55803 12.1069 5.44863C11.9975 5.33924 11.8492 5.27778 11.6944 5.27778H8.97222C8.81751 5.27778 8.66914 5.33924 8.55974 5.44863C8.45035 5.55803 8.38889 5.7064 8.38889 5.86111ZM8.97222 9.55556C8.81751 9.55556 8.66914 9.61701 8.55974 9.72641C8.45035 9.83581 8.38889 9.98418 8.38889 10.1389C8.38889 10.2936 8.45035 10.442 8.55974 10.5514C8.66914 10.6608 8.81751 10.7222 8.97222 10.7222H11.6944C11.8492 10.7222 11.9975 10.6608 12.1069 10.5514C12.2163 10.442 12.2778 10.2936 12.2778 10.1389C12.2778 9.98418 12.2163 9.83581 12.1069 9.72641C11.9975 9.61701 11.8492 9.55556 11.6944 9.55556H8.97222ZM7.05111 5.49556C7.10842 5.44215 7.15439 5.37775 7.18627 5.3062C7.21816 5.23464 7.2353 5.1574 7.23668 5.07907C7.23806 5.00075 7.22366 4.92295 7.19432 4.85031C7.16498 4.77768 7.12131 4.7117 7.06592 4.6563C7.01053 4.60091 6.94454 4.55724 6.87191 4.5279C6.79927 4.49857 6.72147 4.48416 6.64315 4.48554C6.56483 4.48692 6.48758 4.50407 6.41603 4.53595C6.34447 4.56783 6.28007 4.6138 6.22667 4.67111L5.08333 5.81444L4.71778 5.44889C4.6072 5.34585 4.46094 5.28975 4.30982 5.29242C4.15869 5.29509 4.0145 5.35631 3.90763 5.46318C3.80075 5.57006 3.73953 5.71425 3.73686 5.86537C3.7342 6.01649 3.79029 6.16275 3.89333 6.27333L4.67111 7.05111C4.78049 7.16035 4.92875 7.22171 5.08333 7.22171C5.23792 7.22171 5.38618 7.16035 5.49556 7.05111L7.05111 5.49556ZM7.05111 8.94889C6.94174 8.83965 6.79347 8.77829 6.63889 8.77829C6.48431 8.77829 6.33604 8.83965 6.22667 8.94889L5.08333 10.0922L4.71778 9.72667C4.6072 9.62363 4.46094 9.56753 4.30982 9.5702C4.15869 9.57286 4.0145 9.63408 3.90763 9.74096C3.80075 9.84784 3.73953 9.99203 3.73686 10.1431C3.7342 10.2943 3.79029 10.4405 3.89333 10.5511L4.67111 11.3289C4.78049 11.4381 4.92875 11.4995 5.08333 11.4995C5.23792 11.4995 5.38618 11.4381 5.49556 11.3289L7.05111 9.77333C7.16035 9.66396 7.22171 9.5157 7.22171 9.36111C7.22171 9.20653 7.16035 9.05826 7.05111 8.94889Z" fill="#ADD63C"/>
</svg>
